# xmcd CD database file
#
# Track frame offsets:
#	150
#	24628
#	46819
#	62555
#	83814
#	102575
#	122766
#	144663
#	166723
#	185325
#	201445
#	233448
#
# Disc length: 3410 seconds
#
# Revision: 0
# Processed by: cddbd v1.5.1PL0 Copyright (c) Steve Scherf et al.
# Submitted via: CDex 1.51
#
DISCID=9b0d500c
DTITLE=jimmy buffett - parrothead party one
DYEAR=1900
DGENRE=Country
TTITLE0=holiday
TTITLE1=why dont we get drunk and screw
TTITLE2=die while im living
TTITLE3=schoolboy heart
TTITLE4=son of a sailor
TTITLE5=a pirate looks at 40
TTITLE6=its 5 oclock somewhere
TTITLE7=margaritaville
TTITLE8=volcano
TTITLE9=cheeseburger in paradise
TTITLE10=fins
TTITLE11=southern cross
EXTD=
EXTT0=
EXTT1=
EXTT2=
EXTT3=
EXTT4=
EXTT5=
EXTT6=
EXTT7=
EXTT8=
EXTT9=
EXTT10=
EXTT11=
PLAYORDER=
